<svg id="Online" xmlns="http://www.w3.org/2000/svg" width="560" height="140"><style>.a{fill:#605b5e}</style><path class="a" d="M202.5 35.6c2.9 0 4.1 1.5 4.1 4.5 0 9-5.9 15.8-15.2 15.8s-16.1-7.5-16.1-17.2 6.5-17.2 16.1-17.2c7 0 12.9 3.3 12.9 6.7.2 1.6-1 3-2.5 3.2h-.4c-3.2 0-3.8-3.4-10-3.4-5.9 0-8.8 5.1-8.8 10.8s2.8 10.8 8.8 10.8c3.7 0 7.9-2.1 7.9-7.4h-4.8c-1.8.1-3.3-1.3-3.4-3-.1-1.8 1.3-3.3 3-3.4l8.4-.2zm13.8-11.8c0 2.2-1.7 3.9-3.8 3.9-2.1-.1-3.8-1.8-3.8-3.9.1-2.1 1.8-3.6 3.8-3.7 2.1.1 3.7 1.6 3.8 3.7zM209.2 34c0-2.2 1.4-3.7 3.3-3.7 2 0 3.3 1.5 3.3 3.7v18c0 2.2-1.4 3.7-3.3 3.7-2 0-3.3-1.5-3.3-3.7V34zm8.9 1.4c-.3-.6-.4-1.3-.4-2 0-1.8 1.5-3.2 3.2-3.3h.3c1.5 0 2.6 1 3 2.3l4.3 13.3h.1l4.3-13.3c.3-1.4 1.6-2.3 3-2.3 1.8-.1 3.3 1.2 3.5 3v.3c0 .7-.2 1.4-.4 2l-6.7 17.4c-.7 1.8-1.4 2.8-3.6 2.8s-3-1.1-3.6-2.8l-7-17.4zm28.5 9.8c.5 3.3 3.2 4.9 6.3 4.9 3.4 0 5.9-2.7 7.6-2.7 1.6.1 2.7 1.4 2.7 2.9 0 2.9-6 5.7-10.9 5.7-7.6 0-12.6-5.5-12.6-12.9 0-6.8 5-13 12.1-13 7.3 0 12.1 6.7 12.1 12.2 0 2-.9 3-2.9 3l-14.4-.1zm10.5-4.5c-.4-2.9-2.2-5.2-5.4-5.2-3.1 0-5 2.2-5.4 5.2h10.8zm38.4 10.6c0 1.8 0 4.4-3.2 4.4-2 0-2.7-1.1-3.2-2.8-1.6 2-3.9 3.1-6.3 3.1-6.3 0-11.1-5.4-11.1-12.9 0-7.4 5-13 11.1-13 2.5-.1 4.9 1.1 6.3 3.1.2-1.6 1.6-2.8 3.2-2.8 3.2 0 3.2 2.6 3.2 4.4v16.5zm-11.9-1.5c3.5 0 5.2-3.5 5.2-6.7s-1.7-6.8-5.2-6.8-5.4 3.6-5.4 6.8c0 3.2 1.8 6.7 5.4 6.7zm30-12c-1.3 0-3.8-2-6.1-2-1.2 0-2.2.6-2.2 1.9 0 3.1 11.7 2.6 11.7 10.4 0 4.5-3.8 7.9-9.6 7.9-3.8 0-9.4-2.2-9.4-5.2.1-1.6 1.4-2.8 2.9-3 2.6 0 3.8 2.2 6.9 2.2 2.1 0 2.6-.7 2.6-2 0-3.1-11.7-2.6-11.7-10.4 0-4.7 3.8-7.8 9.1-7.8 3.3 0 8.4 1.6 8.4 4.9.1 1.7-1.1 3-2.6 3.1zm10.2-3c-.2-.6-.3-1.2-.3-1.8.2-1.7 1.6-2.9 3.1-2.9 1.6 0 2.9 1 3.4 2.3l4.6 12.7 5-12.7c.5-1.5 1.9-2.4 3.4-2.3 1.7 0 3 1.3 3.2 2.9 0 .6-.1 1.2-.3 1.8l-11.3 28.1c-.6 1.4-1.6 2.6-3.2 2.6-2.2 0-3.5-1.5-3.5-2.9 0-.7.2-1.4.4-2l2.9-7.3-7.4-18.5zm47.4 8.2c0 7-4.8 12.9-12.1 12.9S347 49.9 347 43c0-6.8 5-13 12.1-13 7.1-.1 12.1 6.1 12.1 13zm-17.4 0c0 3.2 1.7 6.7 5.4 6.7s5.4-3.5 5.4-6.7-1.7-6.8-5.4-6.8c-3.7-.1-5.4 3.5-5.4 6.8zm20.2-9c0-2.2 1.4-3.7 3.4-3.7 2.1 0 3.3 1.5 3.3 3.7v12c0 2.4 2 4.3 4.4 4.3s4.3-2 4.3-4.3V34c0-2.2 1.4-3.7 3.4-3.7 2.1 0 3.4 1.5 3.4 3.7v12.1c0 6-4 9.8-11.1 9.8s-11-3.8-11-9.8L374 34zm32.4-8.6c0-2 1.6-3.5 3.5-3.5 2 0 3.5 1.6 3.5 3.5v23.5h8.3c1.8-.1 3.2 1.3 3.3 2.9v.4c-.1 1.8-1.6 3.1-3.3 3.1H410c-2.2 0-3.6-1.5-3.6-3.8V25.4zm26.8-1.6c0 2.2-1.7 3.9-3.8 3.9-2.1-.1-3.8-1.8-3.8-3.9.1-2.1 1.9-3.7 4-3.6 1.9.1 3.5 1.6 3.6 3.6zM426.1 34c0-2.2 1.4-3.7 3.3-3.7 2 0 3.4 1.5 3.4 3.7v18c0 2.2-1.4 3.7-3.4 3.7-2.1 0-3.3-1.5-3.3-3.7V34zm8.9 1.4c-.3-.6-.4-1.3-.4-2 0-1.8 1.5-3.2 3.2-3.3h.3c1.5 0 2.6 1 3 2.3l4.3 13.3h.1l4.3-13.3c.3-1.4 1.6-2.3 3-2.3 1.8-.1 3.3 1.2 3.5 3v.3c0 .7-.2 1.4-.4 2l-6.7 17.4c-.7 1.8-1.4 2.8-3.6 2.8s-3-1.1-3.6-2.8l-7-17.4zm28.6 9.8c.5 3.3 3.2 4.9 6.3 4.9 3.4 0 5.9-2.7 7.6-2.7 1.6.1 2.7 1.4 2.7 2.9 0 2.9-6 5.7-10.9 5.7-7.6 0-12.6-5.5-12.6-12.9 0-6.8 5-13 12.1-13 7.3 0 12.1 6.7 12.1 12.2 0 2-.9 3-2.9 3l-14.4-.1zm10.5-4.5c-.4-2.9-2.2-5.2-5.4-5.2-3.1 0-5 2.2-5.4 5.2h10.8zm15.3-19.2c4.3 0 7.7 3.5 7.7 7.7 0 4.3-3.5 7.7-7.7 7.7s-7.7-3.5-7.7-7.7 3.4-7.7 7.7-7.7zm0 13.5c3.2 0 5.9-2.6 5.9-5.9s-2.6-5.9-5.9-5.9-5.9 2.6-5.9 5.9 2.6 5.9 5.9 5.9zm-1.1-2.5c0 .6-.2 1-1 1s-1-.3-1-1V26c0-.5.2-.9 1-.9h2.3c1.7 0 3.1.5 3.1 2.4.2 1.1-.6 2.2-1.7 2.2h-.4l1.5 2.4c.1.1.1.3.1.4 0 .5-.3.8-1 .8s-.9-.5-1.2-1l-1.3-2.4h-.7l.3 2.6zm1.5-3.9c.7 0 1.1-.2 1.1-1s-.4-1-1.1-1h-1.6v1.9l1.6.1z"/><path d="M155.4 32c-6.1-10.9-6.4-14.9-21.5-15.6-12.8.1-28.7 13.6-29.7 20.6-.1.2-.2.3-.3.4-16-26.8-43.5-31.6-54.7-32.5C16.6 2.4 9.3 17.8 7.9 28.1c-2 13.2 7.6 34.2 37 49.8C68.8 90.5 77 97.1 82 102.8c4.5 5.1 9.9 17.5 10.5 17.6 1.1.2 1.3-.9 3.7-4.4 5.7-8.4 9.9-13.8 19.3-20.3 13.1-9.1 19.7-15.7 29.2-27.7s17-24 10.1-36.4" fill="#fff"/><path class="a" d="M104 79.7c-3.1-.2-5.8 2-6.2 5.1-2.8.2-6.3.3-10.5.2-.4-3.3-3.3-5.7-6.6-5.3S75 83 75.4 86.4c.4 3.3 3.3 5.7 6.6 5.3 2.2-.3 4.2-1.8 5-4 3.6.2 7.3.2 10.9-.2 1 3.1 4.3 4.9 7.5 3.9 3.1-1 4.9-4.3 3.9-7.5-.8-2.3-2.9-4-5.3-4.2"/><path d="M136.6 13.9C115.3 12.8 106.8 29 104 36.7 64.3-44.5-72.8 26.3 50 83.1c24.3 11.2 36.1 27.7 41.8 39.6 5.1 9.4 3.7 3.7 2.3-1.2 3.9-6.7 8.9-12.7 14.7-17.7 13.6-11.4 35.2-26.9 45.9-42.5 10.8-15.5 9.8-46-18.1-47.4m-22.5 79.9c-8.9 6.7-16 15.3-20.9 25.2-10.4-30.3-41.8-38.8-65.7-60.4-15.6-14-16.1-43.8 16.2-48.7 20-3 46.6 7.1 59.9 27.7 0 0 .5 1 1 .4 34.4-47.8 72.4 7.9 9.5 55.8" fill-rule="evenodd" clip-rule="evenodd" fill="#44b4e4"/><path class="a" d="M139.8 33.1s-.1 0 0 0l-.1-.2c-.3-.3-.8-.5-1.2-.4h-.1c-.4 0-.7 0-1.1.1l-.8.2h-.1c-.1 0-7.9 4-27.9 4-13.7-.2-27.3-1.6-40.8-4.1-5.1-.9-8.6-1.5-10.7-1.8-2.6-3.4-5.9-6.3-9.5-8.5l-.3-.2c-.6-.3-1.2-.5-1.8-.6-2.6-.5-5.1.7-5.5 2.5-.4 1.9 1.5 3.9 4.1 4.4 1.2.3 2.4.1 3.5-.4 2 1.5 3.6 3.2 5.1 5.1v.2l.1.1.1.1c4.2 5.3 9.9 15.4 14 33.9.2 1 .5 2 .8 2.7.3.9.3 1.9.2 2.8-.2.4-.2.9-.2 1.3.2 1.3 1.5 2.2 2.7 2.1C85 74 100 74 114.8 76.4c1.3.2 2.5-.7 2.7-2.1.1-.4 2.2-13.6 22.6-38.1.9-.8.7-2.2-.3-3.1m-25.6 10.1c5.3-.2 10.4-.8 15.6-1.7-3.5 4.8-6.8 9.8-9.7 15.1-2.6-.7-7.8-1.3-15.5-1.9v-.1c.7-4.3 1.8-10.9 2.1-11.7 2.6.1 5.1.2 7.5.3M71.5 67.5c-.3-2-.8-4.3-1.4-6.8 2.5-.3 6.6-.6 12.4-.8v3.8c0 2.7.1 4.7.1 6.3-3.6.3-7.1.6-10.7 1.2 0-.1-.4-3.7-.4-3.7zm31-24.9c-2 3.6-3.2 7.5-3.9 11.6-3.6-.2-7.1-.4-10.6-.4-.2-4.4-.9-8.8-2.1-13 5.5.7 11.1 1.4 16.6 1.8M80.9 40l.2.4c.8 1.7 1.2 6.2 1.5 13.4-4.7-.1-9.3.3-13.9 1-1.9-6.6-4.5-12.7-7.9-18.6 4.9 1.2 12.1 2.6 20.1 3.8m6.3 29.9c.1-.5.2-1.1.2-1.7.4-2.7.6-5.5.7-8.2 2.9 0 6.2 0 9.6.1-.3 2.5-.4 5.2-.4 7.9v1.9c-3.4-.2-6.7-.1-10.1 0m25.9 1.3c-3.7-.6-7.4-1-11.2-1.2.5-2.1 1.1-5.2 1.8-9.9 2.5.1 5.2.2 7.8.4 2.9.2 4.9.2 6.3.3-1.6 3.4-3.2 6.9-4.7 10.4"/><path d="M333.5 72.2c13.7 0 23.6 10.7 22.7 24.7-1 13.9-11.5 24.4-25.6 24.4-13.5 0-23.5-10.6-22.7-24.5 1.1-14 11.8-24.6 25.6-24.6zm-2.6 44.4c10.3 0 19.3-8 20.1-19.9.8-11.6-7.1-20.2-17.5-20.2s-19.3 8.3-20.1 20.2c-.8 11.7 7.2 19.9 17.5 19.9zm36.7-19.3c1.9-2.6 5.7-4.8 9.5-4.8 6.7 0 11.4 5 10.3 12l-2.2 15.7h-4.8l2.1-15.6c.8-5.6-3.1-8.2-6.9-8.2-3.3 0-8.2 2.5-8.9 8.2l-2.2 15.6h-4.7l3.8-26.9h2.5l1.5 4zm29.4 22.9h-4.8l6.6-47.1 4.4-.8h.5l-6.7 47.9zm12.7-26.9h4.7l-3.7 26.9H406l3.7-26.9zm4-14.7c2.1 0 3.7 1.8 3.5 3.8-.2 2.2-1.9 3.7-3.9 3.7-2.1 0-3.7-1.6-3.5-3.7.2-2.2 1.8-3.8 3.9-3.8zm13.2 18.7c1.9-2.6 5.7-4.8 9.5-4.8 6.7 0 11.4 5 10.3 12l-2.2 15.7h-4.8l2.1-15.6c.8-5.6-3.1-8.2-6.9-8.2-3.3 0-8.2 2.5-8.9 8.2l-2.2 15.6h-4.7l3.8-26.9h2.5l1.5 4zm29 9.2c-.1.4-.1.8-.1 1.2 0 6.1 5.1 9.5 10.5 9.5 3.1 0 5.8-.9 8.2-2.5.7 1 1.4 2.2 2.1 3.1-2.6 2.2-6.2 3.2-10.9 3.2-8.2 0-14.4-5.9-14.4-13.4 0-9.2 7.1-15.2 14.9-15.2s12.5 6.3 11.8 14.1h-22.1zm17.4-3.3c0-3.9-3.4-6.9-7.5-6.9-5 0-8.6 4.2-9.2 6.9h16.7zM484 140c10.5-10.4 21.8-19.8 32.6-29.6 5.4-5 10.7-9.9 15.7-15.2 5.1-5.1 9.7-10.7 13.9-16.5 2-2.8 3.6-5.9 4.9-9.1s2.2-6.6 2.9-10c1.4-6.8 1.4-13.9-.3-20.7-1.6-6.8-5.4-12.9-10.7-17.4-2.7-2.2-5.9-4-9.3-5.2-3.4-1.3-6.9-2.2-10.5-2.6 3.7-.1 7.4.2 11 1.1 3.7.9 7.2 2.3 10.4 4.4 3.2 2.2 6.1 4.9 8.3 8 2.2 3.2 4 6.7 5.1 10.5 1.2 3.7 1.8 7.5 2 11.4.2 3.8 0 7.7-.7 11.5-1.2 7.7-4.1 15.1-8.5 21.5-8.8 12.4-19.9 22.4-31.3 31.8C508 123.3 496 131.5 484 140z" fill="#44b4e4"/></svg>