<svg id="Online" xmlns="http://www.w3.org/2000/svg" width="540" height="140"><style>.a{fill:#fff}.c{fill:#605b5e}</style><path class="a" d="M196.1 39.6c2.8 0 3.9 1.4 3.9 4.3 0 8.7-5.6 15.2-14.7 15.2s-15.5-7.2-15.5-16.6S176.2 26 185.4 26c6.8 0 12.4 3.2 12.4 6.4.2 1.5-.9 2.9-2.4 3.1h-.4c-3.1 0-3.7-3.3-9.6-3.3-5.6 0-8.5 4.9-8.5 10.4s2.7 10.4 8.5 10.4c3.6 0 7.6-2 7.6-7.2h-4.6c-1.7.1-3.2-1.2-3.3-2.9-.1-1.7 1.2-3.2 2.9-3.3h8.1zM209.4 28.2c0 2.1-1.6 3.8-3.7 3.8-2.1-.1-3.7-1.7-3.7-3.8.1-2 1.7-3.5 3.7-3.6 2 .1 3.6 1.6 3.7 3.6zm-6.8 9.8c0-2.2 1.3-3.6 3.2-3.6s3.2 1.4 3.2 3.6v17.3c0 2.2-1.3 3.6-3.2 3.6s-3.2-1.4-3.2-3.6V38zM211.1 39.4c-.3-.6-.4-1.2-.4-1.9 0-1.7 1.4-3.1 3.1-3.2h.3c1.4 0 2.5.9 2.9 2.3l4.1 12.8h.1l4.1-12.8c.3-1.3 1.5-2.3 2.9-2.3 1.7-.1 3.2 1.1 3.4 2.9v.3c0 .7-.2 1.3-.4 1.9l-6.5 16.8c-.7 1.7-1.3 2.7-3.5 2.7s-2.9-1-3.5-2.7l-6.6-16.8zM238.5 48.8c.5 3.2 3.1 4.7 6.1 4.7 3.3 0 5.6-2.6 7.3-2.6 1.5.1 2.6 1.3 2.6 2.8 0 2.8-5.7 5.5-10.5 5.5-7.3 0-12.1-5.3-12.1-12.4 0-6.6 4.8-12.5 11.6-12.5 7 0 11.6 6.4 11.6 11.8 0 1.9-.8 2.9-2.8 2.9l-13.8-.2zm10.2-4.3c-.4-2.8-2.2-5-5.2-5s-4.8 2.2-5.2 5h10.4zM285.6 54.6c0 1.7 0 4.2-3.1 4.2-1.9 0-2.6-1-3.1-2.7-1.5 1.9-3.8 3-6.1 3-6.1 0-10.7-5.2-10.7-12.4s4.8-12.5 10.7-12.5c2.4-.1 4.7 1 6.1 3 .2-1.5 1.5-2.7 3.1-2.7 3.1 0 3.1 2.5 3.1 4.2v15.9zm-11.5-1.4c3.4 0 5-3.4 5-6.5s-1.6-6.6-5-6.6-5.2 3.5-5.2 6.6 1.8 6.5 5.2 6.5zM303 41.7c-1.2 0-3.7-1.9-5.8-1.9-1.1 0-2.2.6-2.2 1.8 0 3 11.3 2.5 11.3 10 0 4.3-3.7 7.6-9.2 7.6-3.7 0-9-2.1-9-5 .1-1.5 1.3-2.7 2.8-2.9 2.5 0 3.7 2.2 6.7 2.2 2 0 2.5-.7 2.5-1.9 0-3-11.3-2.5-11.3-10 0-4.5 3.7-7.5 8.7-7.5 3.2 0 8.1 1.5 8.1 4.7 0 1.5-1.1 2.8-2.6 2.9zM312.8 38.8c-.2-.6-.3-1.1-.3-1.7.2-1.6 1.5-2.8 3-2.8s2.8.9 3.3 2.3l4.4 12.2 4.8-12.2c.5-1.4 1.8-2.4 3.3-2.3 1.6 0 2.9 1.2 3.1 2.8 0 .6-.1 1.1-.3 1.7l-10.9 27c-.6 1.3-1.5 2.5-3.1 2.5-2.2 0-3.4-1.4-3.4-2.8 0-.7.2-1.3.4-1.9l2.8-7.1-7.1-17.7zM358.4 46.6c0 6.8-4.6 12.4-11.6 12.4s-11.6-5.7-11.6-12.4c0-6.6 4.8-12.5 11.6-12.5s11.6 6 11.6 12.5zm-16.7 0c0 3.1 1.6 6.5 5.2 6.5s5.2-3.4 5.2-6.5-1.6-6.6-5.2-6.6c-3.6.1-5.2 3.5-5.2 6.6zM361.1 38c0-2.2 1.3-3.6 3.3-3.6 2 0 3.2 1.4 3.2 3.6v11.6c0 2.4 1.9 4.1 4.2 4.1s4.1-1.9 4.1-4.1V38c0-2.2 1.3-3.6 3.3-3.6 2 0 3.3 1.4 3.3 3.6v11.7c0 5.7-3.9 9.4-10.7 9.4-6.9 0-10.6-3.7-10.6-9.4l-.1-11.7zM392.3 29.8c0-1.9 1.5-3.4 3.4-3.4s3.4 1.5 3.4 3.4v22.6h8c1.7-.1 3.1 1.2 3.2 2.8v.4c-.1 1.7-1.5 3-3.2 3h-11.3c-2.2 0-3.5-1.4-3.5-3.7V29.8zM418 28.2c0 2.1-1.6 3.8-3.7 3.8-2.1-.1-3.7-1.7-3.7-3.8.1-2 1.8-3.6 3.9-3.5 1.9.1 3.4 1.6 3.5 3.5zm-6.8 9.8c0-2.2 1.3-3.6 3.2-3.6s3.3 1.4 3.3 3.6v17.3c0 2.2-1.3 3.6-3.3 3.6-2 0-3.2-1.4-3.2-3.6V38zM419.7 39.4c-.3-.6-.4-1.2-.4-1.9 0-1.7 1.4-3.1 3.1-3.2h.3c1.4 0 2.5.9 2.9 2.3l4.1 12.8h.1l4.1-12.8c.3-1.3 1.5-2.3 2.9-2.3 1.7-.1 3.2 1.1 3.4 2.9v.3c0 .7-.2 1.3-.4 1.9l-6.5 16.8c-.7 1.7-1.3 2.7-3.5 2.7s-2.9-1-3.5-2.7l-6.6-16.8zM447.2 48.8c.5 3.2 3.1 4.7 6.1 4.7 3.3 0 5.6-2.6 7.3-2.6 1.5.1 2.6 1.3 2.6 2.8 0 2.8-5.7 5.5-10.5 5.5-7.3 0-12.1-5.3-12.1-12.4 0-6.6 4.8-12.5 11.6-12.5 7 0 11.6 6.4 11.6 11.8 0 1.9-.8 2.9-2.8 2.9l-13.8-.2zm10.2-4.3c-.4-2.8-2.2-5-5.2-5s-4.8 2.2-5.2 5h10.4zM472.1 26c4.1 0 7.4 3.4 7.4 7.4 0 4.1-3.4 7.4-7.4 7.4s-7.4-3.4-7.4-7.4c0-4.1 3.3-7.4 7.4-7.4zm0 13c3.1 0 5.6-2.5 5.6-5.6s-2.5-5.6-5.6-5.6c-3.1 0-5.6 2.5-5.6 5.6s2.4 5.6 5.6 5.6c-.1 0 0 0 0 0zm-1.1-2.4c0 .6-.2.9-.9.9-.8 0-.9-.3-.9-.9v-6.2c0-.5.2-.8.9-.8h2.3c1.6 0 3 .5 3 2.4.2 1-.6 2.1-1.6 2.2h-.4l1.4 2.4c.1.1.1.3.1.4 0 .5-.3.8-.9.8-.7 0-.8-.5-1.1-.9l-1.2-2.4h-.7v2.1zm1.5-3.8c.7 0 1-.2 1-.9s-.4-.9-1-.9H471v1.8h1.5zM322.1 74.8c13.1 0 22.7 10.3 21.9 23.7-.9 13.4-11.1 23.4-24.6 23.4-13 0-22.6-10.2-21.8-23.5 1-13.5 11.3-23.6 24.5-23.6zm-2.5 42.7c9.9 0 18.6-7.7 19.3-19.1.8-11.2-6.9-19.4-16.8-19.4-10 0-18.6 8-19.3 19.4-.8 11.2 6.9 19.1 16.8 19.1zM354.9 98.9c1.8-2.5 5.4-4.6 9.1-4.6 6.5 0 11 4.8 10 11.6l-2.2 15.2h-4.6l2.1-15c.8-5.4-3-7.9-6.7-7.9-3.2 0-7.9 2.4-8.5 7.9l-2.2 15h-4.5l3.7-25.9h2.4l1.4 3.7zM383.2 121h-4.6l6.4-45.3 4.2-.8h.5l-6.5 46.1zM395.4 95.1h4.5l-3.6 25.9h-4.5l3.6-25.9zm3.8-14.2c2 0 3.6 1.7 3.4 3.7-.2 2.1-1.8 3.6-3.8 3.6-2 0-3.6-1.5-3.4-3.6.3-2.1 1.9-3.7 3.8-3.7zM412 98.9c1.8-2.5 5.4-4.6 9.1-4.6 6.5 0 11 4.8 10 11.6l-2.2 15.2h-4.6l2.1-15c.8-5.4-3-7.9-6.7-7.9-3.2 0-7.9 2.4-8.5 7.9l-2.2 15h-4.5l3.7-25.9h2.4l1.4 3.7zM439.9 107.8c-.1.4-.1.8-.1 1.1 0 5.8 4.9 9.1 10.1 9.1 3 0 5.5-.8 7.9-2.4.7.9 1.3 2.1 2 3-2.5 2.1-6 3.1-10.5 3.1-7.9 0-13.8-5.6-13.8-12.9 0-8.8 6.9-14.6 14.4-14.6s12 6 11.4 13.6h-21.4zm16.7-3.2c0-3.8-3.3-6.7-7.2-6.7-4.8 0-8.3 4-8.8 6.7h16zM466.9 140c10.1-10 20.9-19 31.4-28.5 5.2-4.8 10.3-9.5 15.1-14.6 4.9-4.9 9.3-10.3 13.3-15.9 1.9-2.7 3.5-5.6 4.7-8.8 1.2-3.1 2.2-6.3 2.8-9.6 1.3-6.6 1.3-13.4-.3-20-1.5-6.6-5.2-12.4-10.3-16.8-2.6-2.2-5.6-3.9-8.9-5-3.3-1.2-6.7-2.1-10.1-2.5 3.6-.1 7.1.2 10.6 1 3.6.8 6.9 2.3 10 4.2 3.1 2.1 5.8 4.7 8 7.7 2.2 3.1 3.9 6.5 4.9 10.1 1.1 3.6 1.7 7.2 1.9 11 .2 3.7 0 7.4-.7 11.1-1.1 7.4-3.9 14.5-8.2 20.7-8.5 12-19.2 21.6-30.1 30.6s-22.6 17.1-34.1 25.3zM154.8 25.9c-5.2-9.3-13.9-13.6-26.9-14.1-11.3.1-21.3 6.9-28.3 12.6C89.6 10.2 74.4 1.7 51.2.2 23.1-1.7 4.9 13.5.8 30.3-2.1 41.5.8 62.5 49 82.9c14.7 6.3 26.8 17.2 34.6 31.1 2.8 5.2 3.3 13.7 5.4 13.6 2.1-.2 3.5-7.2 5.5-10.4 4.9-7.2 15-19.3 23.4-24.7 11.6-7.7 22-17.1 30.6-28 8.2-10.5 12.3-27.8 6.3-38.6"/><path class="c" d="M99.2 75.8c-2.6-.2-5 1.7-5.4 4.3-2.3.2-5.4.2-9 .2-.3-2.8-2.8-4.9-5.7-4.6-2.8.3-4.9 2.8-4.6 5.7.3 2.8 2.8 4.9 5.7 4.6 2-.2 3.7-1.5 4.3-3.4 3.1.2 6.3.1 9.4-.1.8 2.7 3.8 4.2 6.4 3.4 2.7-.8 4.2-3.8 3.4-6.4-.7-2.2-2.5-3.6-4.5-3.7"/><path d="M127.3 19.2c-18.3-.9-25.6 13-28.1 19.6-34-69.7-152-8.9-46.5 39.9 20.8 9.7 31 23.8 35.9 34.1 4.3 8.1 3.2 3.2 2-1 3.4-5.7 7.7-10.9 12.7-15.2 11.7-9.9 30.2-23.2 39.5-36.5 9.3-13.5 8.4-39.7-15.5-40.9m-19.4 68.7c-7.6 5.6-13.8 13.2-17.9 21.7-9-26.1-35.9-33.4-56.5-51.9-13.4-12-13.8-37.7 14-41.9C64.7 13.2 87.6 22 99 39.6c0 0 .5.8.8.4 29.5-41.2 62.2 6.6 8.1 47.9" fill-rule="evenodd" clip-rule="evenodd" fill="#4eb1e1"/><path class="c" d="M130 35.6s-.1 0 0 0c-.1-.2-.1-.1-.1-.2-.3-.3-.7-.4-1-.4h-.1c-.3 0-.7 0-.9.1-.4.1-.7.1-.7.1h-.1c-.1 0-6.8 3.4-23.9 3.4-11.7-.2-23.5-1.3-35-3.6-4.4-.8-7.3-1.2-9.2-1.5-2.3-2.9-5-5.4-8.2-7.3l-.5-.2c-.5-.3-.9-.4-1.5-.5-2.3-.5-4.4.6-4.7 2.2-.3 1.6 1.2 3.4 3.5 3.8 1 .2 2.1.1 3.1-.3 1.6 1.3 3.1 2.7 4.4 4.4v.1l.1.1.1.1c3.5 4.5 8.4 13.2 11.8 29.2.2.8.4 1.7.7 2.4.3.8.3 1.6.2 2.4-.5 1 .1 2.3 1.1 2.7.4.2.8.2 1.1.1 12.7-2.1 25.6-2.1 38.3 0 1.1.2 2.2-.6 2.3-1.7.1-.3 2-11.7 19.3-32.7.8-.7.6-2-.1-2.7m-22 8.7c4.5-.2 9-.7 13.4-1.4-3.1 4.1-5.8 8.5-8.4 13-2.3-.6-6.7-1.1-13.3-1.6.7-3.8 1.5-9.3 1.8-10.1 2.3.1 4.3.2 6.5.1m-36.7 21c-.3-1.7-.7-3.7-1.1-5.8 2.3-.3 5.6-.6 10.7-.7v3.3c0 2.4 0 4 .1 5.4-3.1.2-6.2.6-9.2 1l-.5-3.2zm26.6-21.5c-1.7 3.1-2.8 6.5-3.4 10-3.1-.2-6.1-.3-9-.4-.2-3.8-.8-7.5-1.9-11.2 4.7.8 9.6 1.3 14.3 1.6m-18.5-2.1l.1.3c.7 1.4 1 5.4 1.2 11.5-4-.1-8 .2-11.9.8-1.6-5.6-3.9-11-6.8-16 4.3 1 10.4 2.2 17.4 3.4m5.3 25.6c.1-.5.1-.9.2-1.4.3-2.4.6-4.7.7-7.2 2.5 0 5.4 0 8.3.1-.2 2.2-.4 4.4-.4 6.8v1.6c-3-.1-5.9 0-8.8.1m22.4 1.1c-3.2-.5-6.4-.8-9.6-1 .4-1.8.8-4.4 1.6-8.5 2.2.1 4.4.2 6.7.3 2.5.2 4.2.2 5.4.3-1.6 2.9-2.9 5.9-4.1 8.9"/></svg>